{"title":"A.Million.Ways.to.Die.in.the.West.2014.720p.H264.5.1ch.MP4-Raven","uid":10931479,"size":837565879,"categoryP":"video","categoryS":"movies","magnet":"?xt=urn:btih:2f741f33fcbee68e5ebc666fb3f378c144d4cb2f&amp;dn=A.Million.Ways.to.Die.in.the.West.2014.720p.H264.5.1ch.MP4-Raven&amp;tr=udp%3A%2F%2Ftracker.openbittorrent.com%3A80&amp;tr=udp%3A%2F%2Fopen.demonii.com%3A1337&amp;tr=udp%3A%2F%2Ftracker.coppersurfer.tk%3A6969&amp;tr=udp%3A%2F%2Fexodus.desync.com%3A6969","seeders":2,"leechers":0,"uploader":"Raven1969","files":-1,"time":1409407833,"description":"A.Million.Ways.to.Die.in.the.West.2014.720p.H264.5.1ch.MP4-Raven.\n\n\n\nScreen images:\n\n\n &lt;a href=&quot;\nhttp://mojoimage.com/free-image-hosting-view-13.php?id=61771.png&quot; rel=&quot;nofollow&quot; target=&quot;_NEW&quot;&gt;\nhttp://mojoimage.com/free-image-hosting-view-13.php?id=61771.png&lt;/a&gt;\n\n &lt;a href=&quot;\nhttp://mojoimage.com/free-image-hosting-view-13.php?id=9042.png&quot; rel=&quot;nofollow&quot; target=&quot;_NEW&quot;&gt;\nhttp://mojoimage.com/free-image-hosting-view-13.php?id=9042.png&lt;/a&gt;\n\n &lt;a href=&quot;\nhttp://mojoimage.com/free-image-hosting-view-13.php?id=15613.png&quot; rel=&quot;nofollow&quot; target=&quot;_NEW&quot;&gt;\nhttp://mojoimage.com/free-image-hosting-view-13.php?id=15613.png&lt;/a&gt;\n\n &lt;a href=&quot;\nhttp://mojoimage.com/free-image-hosting-view-13.php?id=96674.png&quot; rel=&quot;nofollow&quot; target=&quot;_NEW&quot;&gt;\nhttp://mojoimage.com/free-image-hosting-view-13.php?id=96674.png&lt;/a&gt;\n\n\n\nIMDB:\n\n\n &lt;a href=&quot;\nhttp://www.imdb.com/title/tt2557490&quot; rel=&quot;nofollow&quot; target=&quot;_NEW&quot;&gt;\nhttp://www.imdb.com/title/tt2557490&lt;/a&gt;\n\n\n\n\nIMDB Rating 6.2\n\n\n\nStoryline\n\nAs a cowardly farmer begins to fall for the mysterious new woman in town, he must put his new-found courage to the test when her husband, a notorious gun-slinger, announces his arrival.\n\n\nGeneral\n\n\nFormat                                   : MPEG-4\nFormat profile                           : Base Media\nCodec ID                                 : isom\nFile size                                : 798 MiB\nDuration                                 : 1h 56mn\nOverall bit rate mode                    : Variable\nOverall bit rate                         : 960 Kbps\nMovie name                               : A Million Ways to Die in the West\nPerformer                                : Seth MacFarlane\nGenre                                    : Comedy\nDescription                              : A cowardly farmer seeks the help of a gunslinger's wife to help him win back the woman who left him.\nRecorded date                            : 2014-05-30\nCopyright                                : Fuck the MPAA\nTitle/Sort                               : A Million Ways to Die in the West\nHDVideo                                  : Yes\nContentRating                            : mpaa Unrated\n\n\nVideo\n\nFormat                                   : AVC\nFormat/Info                              : Advanced Video Codec\nFormat profile                           : &lt;a class=&quot;__cf_email__&quot; href=&quot;/cdn-cgi/l/email-protection&quot; data-cfemail=&quot;a5e8c4cccbe5e9918b95&quot;&gt;[email&amp;#160;protected]&lt;/a&gt;&lt;script cf-hash='f9e31' type=&quot;text/javascript&quot;&gt;\n/* &lt;![CDATA[ */!function(){try{var t=&quot;currentScript&quot;in document?document.currentScript:function(){for(var t=document.getElementsByTagName(&quot;script&quot;),e=t.length;e--;)if(t[e].getAttribute(&quot;cf-hash&quot;))return t[e]}();if(t&amp;&amp;t.previousSibling){var e,r,n,i,c=t.previousSibling,a=c.getAttribute(&quot;data-cfemail&quot;);if(a){for(e=&quot;&quot;,r=parseInt(a.substr(0,2),16),n=2;a.length-n;n+=2)i=parseInt(a.substr(n,2),16)^r,e+=String.fromCharCode(i);e=document.createTextNode(e),c.parentNode.replaceChild(e,c)}}}catch(u){}}();/* ]]&gt; */&lt;/script&gt;\nFormat settings, CABAC                   : Yes\nFormat settings, ReFrames                : 4 frames\nCodec ID                                 : avc1\nCodec ID/Info                            : Advanced Video Coding\nDuration                                 : 1h 56mn\nBit rate                                 : 764 Kbps\nMaximum bit rate                         : 3 576 Kbps\nWidth                                    : 1 280 pixels\nHeight                                   : 528 pixels\nDisplay aspect ratio                     : 2.40:1\nFrame rate mode                          : Constant\nFrame rate                               : 29.970 fps\nColor space                              : YUV\nChroma subsampling                       : 4:2:0\nBit depth                                : 8 bits\nScan type                                : Progressive\nBits/(Pixel*Frame)                       : 0.038\nStream size                              : 635 MiB (80%)\nWriting library                          : x264\nLanguage                                 : English\n\n\nAudio\n\n\nFormat                                   : AAC\nFormat/Info                              : Advanced Audio Codec\nFormat profile                           : LC\nCodec ID                                 : 40\nDuration                                 : 1h 55mn\nBit rate mode                            : Variable\nBit rate                                 : 192 Kbps\nMaximum bit rate                         : 313 Kbps\nOriginal Channel count                   : 6 channels\nChannel positions                        : Front: L C R, Side: L R, LFE\nSampling rate                            : 48.0 KHz\nCompression mode                         : Lossy\nStream size                              : 159 MiB (20%)\nLanguage                                 : English\n\n\n\nText #1\n\n\nFormat                                   : Timed Text\nMuxing mode                              : sbtl\nCodec ID                                 : tx3g\nDuration                                 : 1h 55mn\nBit rate mode                            : Variable\nBit rate                                 : 81 bps\nStream size                              : 68.9 KiB (0%)\nLanguage                                 : Spanish\n\nText #2\n\n\nFormat                                   : Timed Text\nMuxing mode                              : sbtl\nCodec ID                                 : tx3g\nDuration                                 : 1h 55mn\nBit rate mode                            : Variable\nBit rate                                 : 67 bps\nStream size                              : 57.2 KiB (0%)\nLanguage                                 : Swedish\n\n\nText #3\n\n\nFormat                                   : Timed Text\nMuxing mode                              : sbtl\nCodec ID                                 : tx3g\nDuration                                 : 1h 55mn\nBit rate mode                            : Variable\nBit rate                                 : 68 bps\nStream size                              : 57.7 KiB (0%)\nLanguage                                 : English\n\n\n\nPLEASE COMMENT ON QUALITY AND SEED FOR AS LONG AS POSSIBLE TO KEEP THE TORRENT ALIVE :-)","torrent":{"xt":"urn:btih:2f741f33fcbee68e5ebc666fb3f378c144d4cb2f","amp;dn":"A.Million.Ways.to.Die.in.the.West.2014.720p.H264.5.1ch.MP4-Raven","amp;tr":["udp%3A%2F%2Ftracker.openbittorrent.com%3A80","udp%3A%2F%2Fopen.demonii.com%3A1337","udp%3A%2F%2Ftracker.coppersurfer.tk%3A6969","udp%3A%2F%2Fexodus.desync.com%3A6969"],"infoHash":"2f741f33fcbee68e5ebc666fb3f378c144d4cb2f","infoHashBuffer":{"type":"Buffer","data":[47,116,31,51,252,190,230,142,94,188,102,111,179,243,120,193,68,212,203,47]},"announce":[],"urlList":[]}}